<svg width="477" height="38" viewBox="0 0 477 38" fill="none" xmlns="http://www.w3.org/2000/svg">
<path d="M263.5 18.5834C263.5 28.5218 254.805 36.6412 244 36.6412C233.195 36.6412 224.5 28.5218 224.5 18.5834C224.5 8.64487 233.195 0.525513 244 0.525513C254.805 0.525513 263.5 8.64487 263.5 18.5834Z" fill="black" stroke="#67799D"/>
<path d="M476.5 18.5834C476.5 28.5218 467.805 36.6412 457 36.6412C446.195 36.6412 437.5 28.5218 437.5 18.5834C437.5 8.64487 446.195 0.525513 457 0.525513C467.805 0.525513 476.5 8.64487 476.5 18.5834Z" fill="white" stroke="#67799D"/>
<path d="M335.5 18.5834C335.5 28.5218 326.805 36.6412 316 36.6412C305.195 36.6412 296.5 28.5218 296.5 18.5834C296.5 8.64487 305.195 0.525513 316 0.525513C326.805 0.525513 335.5 8.64487 335.5 18.5834Z" fill="white" stroke="#67799D"/>
<path d="M403.5 18.5834C403.5 28.5218 394.805 36.6412 384 36.6412C373.195 36.6412 364.5 28.5218 364.5 18.5834C364.5 8.64487 373.195 0.525513 384 0.525513C394.805 0.525513 403.5 8.64487 403.5 18.5834Z" fill="white" stroke="#67799D"/>
<path d="M190.5 18.5834C190.5 28.5218 181.805 36.6412 171 36.6412C160.195 36.6412 151.5 28.5218 151.5 18.5834C151.5 8.64487 160.195 0.525513 171 0.525513C181.805 0.525513 190.5 8.64487 190.5 18.5834Z" fill="black" stroke="#67799D"/>
<path d="M112.5 18.5834C112.5 28.5218 103.805 36.6412 93 36.6412C82.1945 36.6412 73.5 28.5218 73.5 18.5834C73.5 8.64487 82.1945 0.525513 93 0.525513C103.805 0.525513 112.5 8.64487 112.5 18.5834Z" fill="black" stroke="#67799D"/>
<path d="M39.5 18.5834C39.5 28.5218 30.8054 36.6412 20 36.6412C9.19455 36.6412 0.5 28.5218 0.5 18.5834C0.5 8.64487 9.19455 0.525513 20 0.525513C30.8054 0.525513 39.5 8.64487 39.5 18.5834Z" fill="black" stroke="#67799D"/>
</svg>
