<svg width="38" height="38" viewBox="0 0 38 38" fill="none" xmlns="http://www.w3.org/2000/svg" xmlns:xlink="http://www.w3.org/1999/xlink">
<path d="M36,18.58C36,26.88 31.58,37 18.26,37C8.249,37.066 0.077,29.011 0,19C0.077,8.989 8.249,0.933 18.26,1C22.401,1.015 26.417,2.424 29.66,5C29.884,5.183 30.022,5.451 30.04,5.74C30.041,6.032 29.926,6.313 29.72,6.52C28.418,7.71 27.176,8.965 26,10.28C25.658,10.657 25.084,10.709 24.68,10.4C22.832,9.032 20.578,8.328 18.28,8.4C12.371,8.4 7.58,13.19 7.58,19.1C7.58,25.009 12.371,29.8 18.28,29.8C24.28,29.8 26.82,27.24 28.14,22.7L19,22.7C18.448,22.7 18,22.252 18,21.7L18,16.4C18,15.848 18.448,15.4 19,15.4L35,15.4C35.46,15.397 35.849,15.742 35.9,16.2C35.974,16.991 36.008,17.785 36,18.58Z" fill="#000000"/>
</svg>
