<svg width="240" height="200" viewBox="0 0 240 200" fill="none" xmlns="http://www.w3.org/2000/svg" xmlns:xlink="http://www.w3.org/1999/xlink">
<mask id="mask_0_1_117" style="mask-type:alpha" maskUnits="userSpaceOnUse" x="37.846802" y="26" width="81.934853" height="73">
<path d="M43.711,53.286L37.847,56.127L37.847,56.501L37.847,57.323L53.765,62.855L54.184,82.367L51.503,84.908L51.168,87.525L52.759,89.992L53.848,90.964L52.592,91.935L51.503,93.132L48.319,123.259L48.738,124.081L52.508,125.576L55.859,125.875L58.54,125.875L61.053,125.202L62.98,124.604L64.404,123.483L63.399,113.092L62.226,102.102L61.724,96.57L61.724,94.253L61.305,93.132L60.886,92.384L58.624,91.113L58.791,90.665L60.383,89.095C60.634,88.771 61.171,87.899 61.305,87.002C61.439,86.104 61.249,85.481 61.137,85.282L60.383,83.937L59.21,82.666L59.21,64.649L72.866,69.658L71.777,74.293L70.018,83.937L71.777,87.375L73.955,88.721L73.955,95.374L76.217,98.439L77.558,101.729L77.558,105.018L75.296,100.533L72.866,96.869L71.777,95.972C71.19,95.748 69.9,95.314 69.431,95.374C68.962,95.434 68.063,96.396 67.672,96.869L67.002,99.934L67.672,105.616L70.018,113.989L72.447,119.371L75.714,123.483L79.149,125.576L81.663,126.174L84.846,135.668L76.301,149.872L76.301,150.919L83.422,156.675L89.203,161.16L97.58,165.496L108.472,169.832L114.504,171.327L120.619,172L129.249,170.355L146.339,163.478L154.885,157.871L163.179,150.62L163.179,150.171L159.325,143.443L153.963,135.444L153.544,133.874L155.806,129.314L157.817,126.324L160.917,124.978L163.262,123.408L164.268,122.511L166.278,120.119L168.959,114.138L170.886,107.709L171.892,102.925L171.892,98.813L171.556,98.066L170.384,95.748L168.54,95.3L166.697,96.271L165.106,98.066L163.179,101.878L161.838,103.971L161.838,102.102L162.508,99.561L163.765,97.019L165.106,94.851L165.106,88.048L166.697,87.6L167.954,85.581L168.54,83.712L166.027,69.209L173.651,66.443L187.893,61.584L200.125,57.772L201.717,56.127L195.601,53.286L187.139,50.371L178.678,47.156L169.63,44.016L163.43,41.4L152.371,37.587L141.731,33.849L130.673,29.813L119.279,26L107.969,29.813L97.58,33.849L87.192,37.587L76.468,41.4L68.677,44.016L59.88,47.156L52.759,50.371L43.711,53.286Z" fill="#D9D9D9"/>
</mask>
<g mask="url(#mask_0_1_117)">
<rect  x="-0.524" y="0.732" width="238.935" height="198.405" fill="url(#pattern_0_1_118)"/>
</g>
</svg>
